PathFileType	4	(X/Y/Z)	/Users/itak/Documents/Research/Walk-IL/dataset/trc/00275_00010.trc
DataRate	CameraRate	NumFrames	NumMarkers	Units	OrigDataRate	OrigDataStartFrame	OrigNumFrames
100.000000	100.000000	4	53	mm	100.000000	326	522
Frame#	Time	RPSI			LPSI			L3			STRN			T10			C7			CLAV			RBAK			LBAK			LSHO			LUPA			LAEL			LAOL			LWTS			LWPS			LFRA			LIFD			LHPS			LHTS			RSHO			RUPA			RAEL			RAOL			RWTS			RWPS			RFRA			RIFD			RHTS			RHPS			RBHD			LFHD			RFHD			LBHD			LHIP			RHIP			RASI			LASI			LKNE			LTHI			LANK			LTIP			LTOE			LMT1			LMT5			LHEE			RKNE			RTHI			RANK			RTIP			RTOE			RMT1			RMT5			RHEE			
		X1	Y1	Z1	X2	Y2	Z2	X3	Y3	Z3	X4	Y4	Z4	X5	Y5	Z5	X6	Y6	Z6	X7	Y7	Z7	X8	Y8	Z8	X9	Y9	Z9	X10	Y10	Z10	X11	Y11	Z11	X12	Y12	Z12	X13	Y13	Z13	X14	Y14	Z14	X15	Y15	Z15	X16	Y16	Z16	X17	Y17	Z17	X18	Y18	Z18	X19	Y19	Z19	X20	Y20	Z20	X21	Y21	Z21	X22	Y22	Z22	X23	Y23	Z23	X24	Y24	Z24	X25	Y25	Z25	X26	Y26	Z26	X27	Y27	Z27	X28	Y28	Z28	X29	Y29	Z29	X30	Y30	Z30	X31	Y31	Z31	X32	Y32	Z32	X33	Y33	Z33	X34	Y34	Z34	X35	Y35	Z35	X36	Y36	Z36	X37	Y37	Z37	X38	Y38	Z38	X39	Y39	Z39	X40	Y40	Z40	X41	Y41	Z41	X42	Y42	Z42	X43	Y43	Z43	X44	Y44	Z44	X45	Y45	Z45	X46	Y46	Z46	X47	Y47	Z47	X48	Y48	Z48	X49	Y49	Z49	X50	Y50	Z50	X51	Y51	Z51	X52	Y52	Z52	X53	Y53	Z53	

327	3.26	-706.8773803710938	970.6796264648438	63.09514999389648	-721.00634765625	975.5889282226562	-111.077880859375	-694.812255859375	1058.238403320312	-42.81060791015625	-406.939453125	1193.170288085938	-39.56925201416016	-680.9942626953125	1180.218872070312	-59.13538360595703	-591.8595581054688	1411.546020507812	-73.72573852539062	-451.7576599121094	1302.4853515625	-45.41543579101562	-671.2559204101562	1282.708984375	-8.923671722412109	-596.1318969726562	1376.907470703125	-180.9206695556641	-498.1150207519531	1367.819458007812	-212.2555694580078	-510.7105712890625	1252.873657226562	-289.8481750488281	-493.193115234375	1053.7666015625	-306.4704895019531	-574.1867065429688	1034.222045898438	-277.5818786621094	-389.2557983398438	862.5807495117188	-230.3276214599609	-399.1648559570312	843.1749877929688	-299.5072326660156	-460.4618225097656	958.3426513671875	-307.7589721679688	-335.45751953125	684.081298828125	-217.7757415771484	-372.2130126953125	759.240966796875	-290.796142578125	-334.4311218261719	775.6128540039062	-238.4512176513672	-553.5780639648438	1383.126220703125	92.31346130371094	-584.9931030273438	1332.451049804688	156.0822906494141	-693.4542236328125	1091.852172851562	192.2692260742188	-694.6961059570312	1081.484130859375	96.95196533203125	-627.8062133789062	853.5288696289062	197.8295288085938	-698.0692138671875	863.7427368164062	245.6266784667969	-694.29443359375	1023.792419433594	215.13818359375	-659.026123046875	671.475341796875	205.1644287109375	-631.3995361328125	738.0117797851562	229.5933380126953	-696.7649536132812	749.8778686523438	255.5874633789062	-581.6116333007812	1547.315673828125	8.714377403259277	-408.6161804199219	1605.031860351562	-99.64679718017578	-415.3775329589844	1602.74609375	-6.886921405792236	-569.5039672851562	1541.234497070312	-137.0919952392578	-663.423583984375	928.6887817382812	-215.0885009765625	-593.7875366210938	919.4359741210938	154.3040466308594	-484.9120788574219	923.7431030273438	68.36308288574219	-518.2935791015625	926.44677734375	-183.7321624755859	-644.5072021484375	460.5220642089844	-182.2014312744141	-635.12548828125	602.642333984375	-205.9386596679688	-840.4000854492188	51.81415557861328	-130.1578826904297	-747.4493408203125	250.6856079101562	-164.2437896728516	-634.4559936523438	40.02004623413086	-70.40237426757812	-706.5424194335938	32.48836898803711	-32.86202621459961	-715.2871704101562	50.77528381347656	-143.14404296875	-889.9168090820312	49.26292419433594	-73.05960083007812	-413.3218383789062	485.0814819335938	98.01373291015625	-488.4044494628906	732.12646484375	140.7874450683594	-323.5622253417969	44.88711547851562	72.06348419189453	-363.389892578125	372.4994506835938	86.86128997802734	-146.19677734375	114.5773696899414	23.23063278198242	-194.4035339355469	88.47003173828125	-18.82210540771484	-222.2508697509766	67.62772369384766	95.81178283691406	-373.1498718261719	27.98444175720215	20.31071090698242	
328	3.27	-717.359619140625	969.974609375	62.256103515625	-731.1060791015625	975.8854370117188	-111.988883972168	-704.8939208984375	1058.143920898438	-42.73905944824219	-416.6648559570312	1193.441040039062	-41.3122444152832	-690.76025390625	1180.306640625	-58.5909309387207	-601.4734497070312	1411.885620117188	-73.83015441894531	-461.31689453125	1302.872924804688	-46.9907112121582	-680.4920043945312	1283.4296875	-8.054097175598145	-607.207275390625	1377.041625976562	-180.8849792480469	-509.6832885742188	1367.844360351562	-213.6019134521484	-523.7680053710938	1253.024536132812	-291.1705322265625	-506.6770324707031	1054.168090820312	-308.3630065917969	-587.1357421875	1034.236450195312	-278.236328125	-399.0545043945312	864.9102172851562	-233.7384033203125	-410.1352844238281	844.9228515625	-302.5927429199219	-473.0908813476562	959.2471313476562	-310.1721496582031	-341.7640991210938	687.5198974609375	-221.2685546875	-381.3477783203125	761.5173950195312	-293.8268432617188	-342.8027648925781	778.9811401367188	-242.606201171875	-561.3056640625	1383.618896484375	91.84745025634766	-591.7861938476562	1332.815185546875	155.9401702880859	-699.9255981445312	1092.282592773438	193.5758666992188	-703.6109619140625	1082.580810546875	98.17760467529297	-633.0899047851562	854.1771850585938	194.8843078613281	-701.4193725585938	863.9581909179688	245.7237548828125	-699.7315673828125	1024.123901367188	215.9324493408203	-663.7470092773438	672.2206420898438	201.2510833740234	-635.3237915039062	738.3117065429688	225.3722381591797	-699.6344604492188	749.9237060546875	254.2525482177734	-590.0146484375	1547.905151367188	7.91888427734375	-417.1338806152344	1604.817993164062	-101.1247634887695	-423.5051879882812	1602.375610351562	-8.332625389099121	-578.59033203125	1542.032104492188	-137.9424133300781	-673.2528076171875	929.7894897460938	-216.2818450927734	-604.6433715820312	918.296630859375	153.7069244384766	-495.32958984375	923.6021728515625	68.02866363525391	-528.073486328125	927.5489501953125	-184.2862243652344	-651.7224731445312	461.2886047363281	-182.2743835449219	-643.1835327148438	603.4659423828125	-206.4263153076172	-841.1039428710938	50.47589111328125	-129.7444305419922	-751.1969604492188	249.9389190673828	-163.7923736572266	-634.6068725585938	40.11334228515625	-70.52081298828125	-706.5711669921875	32.15590667724609	-32.68533706665039	-715.718017578125	50.74411010742188	-142.8879241943359	-890.386474609375	46.71709823608398	-72.45812225341797	-420.33251953125	486.1430358886719	97.94102478027344	-498.6114501953125	732.0333251953125	140.4459686279297	-333.6881408691406	45.32061386108398	72.05585479736328	-370.7408447265625	373.2862548828125	87.14615631103516	-155.4791870117188	114.2173233032227	25.47712326049805	-203.3618927001953	88.59732818603516	-17.18017768859863	-232.5103149414062	67.26569366455078	97.01036071777344	-382.7414855957031	28.88941764831543	19.68678665161133	
329	3.28	-727.7109985351562	969.573486328125	61.41210174560547	-740.9309692382812	976.3782958984375	-112.9267807006836	-714.6951293945312	1058.1640625	-42.663330078125	-426.2378234863281	1193.937255859375	-42.85996246337891	-700.2178955078125	1180.467895507812	-57.97122573852539	-610.9868774414062	1412.403564453125	-73.82234191894531	-470.7140808105469	1303.47998046875	-48.42166900634766	-689.521728515625	1284.282470703125	-7.082703590393066	-618.2127075195312	1377.294799804688	-180.6983489990234	-521.2169189453125	1367.980102539062	-214.847900390625	-536.9276123046875	1253.280883789062	-292.352294921875	-520.2642211914062	1054.6435546875	-310.2208557128906	-600.1656494140625	1034.364501953125	-278.8413696289062	-409.2482604980469	867.19921875	-237.2302856445312	-421.4955749511719	846.664306640625	-305.7577819824219	-485.9324951171875	960.1799926757812	-312.5773010253906	-348.631103515625	690.9439086914062	-224.9955139160156	-390.9526062011719	763.7928466796875	-297.0225524902344	-351.6887817382812	782.299072265625	-246.9210662841797	-568.9096069335938	1384.274780273438	91.50804138183594	-598.464599609375	1333.330810546875	155.8979339599609	-706.4160766601562	1092.919311523438	194.96728515625	-712.393798828125	1083.786254882812	99.57386016845703	-638.3829956054688	855.1729736328125	192.295654296875	-704.718505859375	864.4196166992188	245.9438018798828	-705.1790771484375	1024.671997070312	216.8696746826172	-668.1397705078125	673.24365234375	197.8733825683594	-639.1187744140625	738.994140625	221.6067810058594	-702.3184204101562	750.2493286132812	253.1440277099609	-598.400146484375	1548.756958007812	7.190346240997314	-425.6726379394531	1604.87939453125	-102.6102752685547	-431.644287109375	1602.314453125	-9.770583152770996	-587.6917724609375	1543.038208007812	-138.7241821289062	-682.7745361328125	931.031982421875	-217.4491882324219	-615.4246826171875	917.4348754882812	153.1239624023438	-505.6403503417969	923.5057373046875	67.78244018554688	-537.5027465820312	928.7108154296875	-184.7156524658203	-658.4478149414062	462.2415161132812	-182.2266387939453	-650.8052978515625	604.4733276367188	-206.8686065673828	-841.6292724609375	49.53090667724609	-129.4118957519531	-754.5811767578125	249.4905090332031	-163.36279296875	-634.716796875	40.18655395507812	-70.61199951171875	-706.5670776367188	31.81463813781738	-32.58009719848633	-716.0397338867188	50.77076721191406	-142.6576690673828	-890.7659912109375	44.76082611083984	-72.01530456542969	-426.6268005371094	487.8125305175781	97.88558959960938	-508.4712829589844	732.4620361328125	140.1333312988281	-345.8683166503906	45.99824142456055	72.06026458740234	-377.9846801757812	374.3945007324219	87.35398101806641	-166.4080810546875	112.9911575317383	27.73278427124023	-214.0896301269531	88.09806823730469	-15.52946281433105	-244.7116851806641	66.57171630859375	98.22159576416016	-394.3601379394531	30.2773323059082	19.02695655822754	
330	3.29	-737.9093017578125	969.548828125	60.56686019897461	-750.4766235351562	977.1395874023438	-113.8741989135742	-724.21337890625	1058.384155273438	-42.597412109375	-435.6421508789062	1194.668579101562	-44.2115592956543	-709.3756713867188	1180.815795898438	-57.29660415649414	-620.36083984375	1413.15625	-73.71863555908203	-479.9172058105469	1304.312744140625	-49.70838928222656	-698.3321533203125	1285.352172851562	-6.024669170379639	-629.0843505859375	1377.72998046875	-180.3762359619141	-532.6477661132812	1368.26171875	-215.9851837158203	-550.1581420898438	1253.674194335938	-293.3753051757812	-533.9224853515625	1055.226928710938	-312.0195922851562	-613.2324829101562	1034.64501953125	-279.3536987304688	-419.8504028320312	869.4290771484375	-240.7803802490234	-433.2499084472656	848.394287109375	-308.9835815429688	-498.9685668945312	961.158203125	-314.9495849609375	-356.1192016601562	694.3040771484375	-228.9661102294922	-401.0780944824219	766.0444946289062	-300.38330078125	-361.1390075683594	785.5149536132812	-251.3735198974609	-576.3726806640625	1385.1533203125	91.27735137939453	-605.0240478515625	1334.062133789062	155.9509887695312	-712.880126953125	1093.803588867188	196.4383850097656	-720.9957885742188	1085.145751953125	101.1248321533203	-643.6785278320312	856.534423828125	190.0997314453125	-708.0382690429688	865.1563720703125	246.2624664306641	-710.6266479492188	1025.472900390625	217.9427642822266	-672.184814453125	674.5534057617188	195.0936279296875	-642.7843017578125	740.0999145507812	218.3720397949219	-704.8690185546875	750.8881225585938	252.2813568115234	-606.7605590820312	1549.88720703125	6.538519859313965	-434.2436828613281	1605.277587890625	-104.0975875854492	-439.8075866699219	1602.628295898438	-11.18662071228027	-596.796142578125	1544.262939453125	-139.4292297363281	-692.0008544921875	932.4708251953125	-218.5666198730469	-626.0812377929688	916.9488525390625	152.534912109375	-515.816650390625	923.5415649414062	67.61525726318359	-546.6006469726562	930.00341796875	-185.0067901611328	-664.6484375	463.4067993164062	-182.0719757080078	-657.9284057617188	605.689208984375	-207.2806243896484	-841.9783935546875	48.93301391601562	-129.1504974365234	-757.64794921875	249.3892059326172	-162.989013671875	-634.7861328125	40.23935317993164	-70.67302703857422	-706.5263061523438	31.4979190826416	-32.54043960571289	-716.2578125	50.83910751342773	-142.4611663818359	-891.0484008789062	43.36873245239258	-71.7117919921875	-432.2935180664062	490.1221313476562	97.842041015625	-517.9465942382812	733.4917602539062	139.8116607666016	-360.0481262207031	47.00165557861328	72.08783721923828	-385.2424621582031	375.86181640625	87.50615692138672	-179.0686187744141	111.1260375976562	29.92014122009277	-226.6541900634766	87.15754699707031	-13.93183326721191	-258.8308715820312	65.68675231933594	99.40101623535156	-407.9949951171875	32.17557525634766	18.37399101257324	
